# MagicaVoxel @ Ephtracy

# group
o 

# material
mtllib конвеер 3 8 х 8.mtl
usemtl palette

# normals
vn -1 0 0
vn 1 0 0
vn 0 0 1
vn 0 0 -1
vn 0 -1 0
vn 0 1 0

# texcoords
vt 0.970703 0.5
vt 0.990234 0.5
vt 0.994141 0.5

# verts
v -0.4 0 -0.1
v -0.4 0 -0.4
v -0.4 0.2 -0.1
v -0.4 0.2 -0.4
v -0.3 0 0.1
v -0.3 0 -0.1
v -0.3 0.2 0.1
v -0.3 0.2 -0.1
v -0.2 0 0.2
v -0.2 0 0.1
v -0.2 0.2 0.2
v -0.2 0.2 0.1
v -0.1 0 0.3
v -0.1 0 0.2
v -0.1 0.2 0.3
v -0.1 0.2 0.2
v 0.1 0 0.4
v 0.1 0 0.3
v 0.1 0.2 0.4
v 0.1 0.2 0.3
v 0.3 0.1 -0.3
v 0.3 0.1 -0.4
v 0.3 0.2 -0.3
v 0.3 0.2 -0.4
v -0.3 0.1 -0.1
v -0.3 0.1 -0.4
v -0.3 0.2 -0.1
v -0.3 0.2 -0.4
v -0.2 0.1 0.1
v -0.2 0.1 -0.1
v -0.2 0.2 0.1
v -0.2 0.2 -0.1
v -0.1 0.1 0.2
v -0.1 0.1 0.1
v -0.1 0.2 0.2
v -0.1 0.2 0.1
v 0.1 0.1 0.3
v 0.1 0.1 0.2
v 0.1 0.2 0.3
v 0.1 0.2 0.2
v 0.4 0 0.4
v 0.4 0 0.3
v 0.4 0 0.2
v 0.4 0 0
v 0.4 0 -0.3
v 0.4 0 -0.4
v 0.4 0.1 0.3
v 0.4 0.1 0.2
v 0.4 0.1 0
v 0.4 0.1 -0.3
v 0.4 0.2 0.4
v 0.4 0.2 0.3
v 0.4 0.2 -0.3
v 0.4 0.2 -0.4
v 0.1 0 0.4
v 0.1 0.2 0.4
v 0.4 0 0.4
v 0.4 0.2 0.4
v -0.1 0 0.3
v -0.1 0.2 0.3
v 0.1 0 0.3
v 0.1 0.2 0.3
v -0.2 0 0.2
v -0.2 0.2 0.2
v -0.1 0 0.2
v -0.1 0.2 0.2
v -0.3 0 0.1
v -0.3 0.2 0.1
v -0.2 0 0.1
v -0.2 0.2 0.1
v -0.4 0 -0.1
v -0.4 0.2 -0.1
v -0.3 0 -0.1
v -0.3 0.2 -0.1
v 0.3 0.1 -0.3
v 0.3 0.2 -0.3
v 0.4 0.1 -0.3
v 0.4 0.2 -0.3
v 0.1 0.1 0.3
v 0.1 0.2 0.3
v 0.4 0.1 0.3
v 0.4 0.2 0.3
v -0.1 0.1 0.2
v -0.1 0.2 0.2
v 0.1 0.1 0.2
v 0.1 0.2 0.2
v -0.2 0.1 0.1
v -0.2 0.2 0.1
v -0.1 0.1 0.1
v -0.1 0.2 0.1
v -0.3 0.1 -0.1
v -0.3 0.2 -0.1
v -0.2 0.1 -0.1
v -0.2 0.2 -0.1
v -0.4 0 -0.4
v -0.4 0.2 -0.4
v -0.3 0 -0.4
v -0.3 0.1 -0.4
v -0.3 0.2 -0.4
v 0.3 0 -0.4
v 0.3 0.1 -0.4
v 0.3 0.2 -0.4
v 0.4 0 -0.4
v 0.4 0.2 -0.4
v 0.1 0 0.4
v 0.4 0 0.4
v -0.1 0 0.3
v 0.1 0 0.3
v 0.4 0 0.3
v -0.2 0 0.2
v -0.1 0 0.2
v 0.1 0 0.2
v 0.4 0 0.2
v -0.3 0 0.1
v -0.2 0 0.1
v -0.1 0 0.1
v 0.1 0 0
v 0.4 0 0
v -0.4 0 -0.1
v -0.3 0 -0.1
v -0.2 0 -0.1
v -0.1 0 -0.1
v 0.1 0 -0.1
v 0.2 0 -0.1
v -0.2 0 -0.2
v -0.1 0 -0.2
v 0.1 0 -0.2
v 0.2 0 -0.2
v -0.1 0 -0.3
v 0.1 0 -0.3
v 0.3 0 -0.3
v 0.4 0 -0.3
v -0.4 0 -0.4
v -0.3 0 -0.4
v 0.3 0 -0.4
v 0.4 0 -0.4
v 0.1 0.1 0.3
v 0.4 0.1 0.3
v -0.1 0.1 0.2
v 0.1 0.1 0.2
v 0.4 0.1 0.2
v -0.2 0.1 0.1
v -0.1 0.1 0.1
v 0.1 0.1 0
v 0.4 0.1 0
v -0.3 0.1 -0.1
v -0.2 0.1 -0.1
v -0.1 0.1 -0.1
v 0.1 0.1 -0.1
v 0.2 0.1 -0.1
v -0.2 0.1 -0.2
v -0.1 0.1 -0.2
v 0.1 0.1 -0.2
v 0.2 0.1 -0.2
v -0.1 0.1 -0.3
v 0.1 0.1 -0.3
v 0.3 0.1 -0.3
v 0.4 0.1 -0.3
v -0.3 0.1 -0.4
v 0.3 0.1 -0.4
v 0.1 0.2 0.4
v 0.4 0.2 0.4
v -0.1 0.2 0.3
v 0.1 0.2 0.3
v 0.4 0.2 0.3
v -0.2 0.2 0.2
v -0.1 0.2 0.2
v 0.1 0.2 0.2
v -0.3 0.2 0.1
v -0.2 0.2 0.1
v -0.1 0.2 0.1
v -0.4 0.2 -0.1
v -0.3 0.2 -0.1
v -0.2 0.2 -0.1
v 0.3 0.2 -0.3
v 0.4 0.2 -0.3
v -0.4 0.2 -0.4
v -0.3 0.2 -0.4
v 0.3 0.2 -0.4
v 0.4 0.2 -0.4

# faces
f 3/1/1 2/1/1 1/1/1
f 4/1/1 2/1/1 3/1/1
f 7/1/1 6/1/1 5/1/1
f 8/1/1 6/1/1 7/1/1
f 11/1/1 10/1/1 9/1/1
f 12/1/1 10/1/1 11/1/1
f 15/1/1 14/1/1 13/1/1
f 16/1/1 14/1/1 15/1/1
f 19/1/1 18/1/1 17/1/1
f 20/1/1 18/1/1 19/1/1
f 23/1/1 22/1/1 21/1/1
f 24/1/1 22/1/1 23/1/1
f 25/1/2 26/1/2 27/1/2
f 27/1/2 26/1/2 28/1/2
f 29/1/2 30/1/2 31/1/2
f 31/1/2 30/1/2 32/1/2
f 33/1/2 34/1/2 35/1/2
f 35/1/2 34/1/2 36/1/2
f 37/1/2 38/1/2 39/1/2
f 39/1/2 38/1/2 40/1/2
f 41/1/2 42/1/2 47/1/2
f 42/2/2 43/2/2 47/2/2
f 43/3/2 44/3/2 48/3/2
f 47/2/2 43/2/2 48/2/2
f 44/2/2 45/2/2 49/2/2
f 48/3/2 44/3/2 49/3/2
f 45/1/2 46/1/2 50/1/2
f 49/2/2 45/2/2 50/2/2
f 41/1/2 47/1/2 51/1/2
f 51/1/2 47/1/2 52/1/2
f 50/1/2 46/1/2 53/1/2
f 53/1/2 46/1/2 54/1/2
f 57/1/3 56/1/3 55/1/3
f 58/1/3 56/1/3 57/1/3
f 61/1/3 60/1/3 59/1/3
f 62/1/3 60/1/3 61/1/3
f 65/1/3 64/1/3 63/1/3
f 66/1/3 64/1/3 65/1/3
f 69/1/3 68/1/3 67/1/3
f 70/1/3 68/1/3 69/1/3
f 73/1/3 72/1/3 71/1/3
f 74/1/3 72/1/3 73/1/3
f 77/1/3 76/1/3 75/1/3
f 78/1/3 76/1/3 77/1/3
f 79/1/4 80/1/4 81/1/4
f 81/1/4 80/1/4 82/1/4
f 83/1/4 84/1/4 85/1/4
f 85/1/4 84/1/4 86/1/4
f 87/1/4 88/1/4 89/1/4
f 89/1/4 88/1/4 90/1/4
f 91/1/4 92/1/4 93/1/4
f 93/1/4 92/1/4 94/1/4
f 95/1/4 96/1/4 97/1/4
f 97/1/4 96/1/4 98/1/4
f 98/1/4 96/1/4 99/1/4
f 97/2/4 98/2/4 100/2/4
f 100/2/4 98/2/4 101/2/4
f 100/1/4 101/1/4 103/1/4
f 101/1/4 102/1/4 103/1/4
f 103/1/4 102/1/4 104/1/4
f 108/1/5 106/1/5 105/1/5
f 109/1/5 106/1/5 108/1/5
f 111/1/5 108/1/5 107/1/5
f 112/2/5 109/2/5 108/2/5
f 112/1/5 108/1/5 111/1/5
f 113/2/5 109/2/5 112/2/5
f 115/1/5 111/1/5 110/1/5
f 116/3/5 112/3/5 111/3/5
f 116/3/5 113/3/5 112/3/5
f 116/1/5 111/1/5 115/1/5
f 117/3/5 113/3/5 116/3/5
f 118/3/5 113/3/5 117/3/5
f 120/1/5 115/1/5 114/1/5
f 121/2/5 116/2/5 115/2/5
f 121/1/5 115/1/5 120/1/5
f 122/3/5 117/3/5 116/3/5
f 122/2/5 116/2/5 121/2/5
f 123/2/5 118/2/5 117/2/5
f 123/3/5 117/3/5 122/3/5
f 124/2/5 118/2/5 123/2/5
f 125/2/5 121/2/5 120/2/5
f 125/3/5 122/3/5 121/3/5
f 125/3/5 124/3/5 123/3/5
f 125/3/5 123/3/5 122/3/5
f 126/3/5 124/3/5 125/3/5
f 127/3/5 124/3/5 126/3/5
f 128/2/5 118/2/5 124/2/5
f 128/3/5 124/3/5 127/3/5
f 129/3/5 127/3/5 126/3/5
f 129/2/5 126/2/5 125/2/5
f 130/2/5 128/2/5 127/2/5
f 130/3/5 127/3/5 129/3/5
f 131/2/5 118/2/5 128/2/5
f 131/2/5 128/2/5 130/2/5
f 132/2/5 118/2/5 131/2/5
f 133/1/5 120/1/5 119/1/5
f 134/2/5 130/2/5 129/2/5
f 134/1/5 120/1/5 133/1/5
f 134/2/5 125/2/5 120/2/5
f 134/2/5 129/2/5 125/2/5
f 134/2/5 131/2/5 130/2/5
f 135/1/5 132/1/5 131/1/5
f 135/2/5 131/2/5 134/2/5
f 136/1/5 132/1/5 135/1/5
f 137/2/6 138/2/6 140/2/6
f 140/2/6 138/2/6 141/2/6
f 139/3/6 140/3/6 143/3/6
f 140/3/6 141/3/6 143/3/6
f 143/3/6 141/3/6 144/3/6
f 144/3/6 141/3/6 145/3/6
f 142/2/6 143/2/6 147/2/6
f 143/3/6 144/3/6 148/3/6
f 147/2/6 143/2/6 148/2/6
f 144/2/6 145/2/6 149/2/6
f 148/3/6 144/3/6 149/3/6
f 149/2/6 145/2/6 150/2/6
f 146/2/6 147/2/6 151/2/6
f 147/3/6 148/3/6 151/3/6
f 149/3/6 150/3/6 151/3/6
f 148/3/6 149/3/6 151/3/6
f 151/3/6 150/3/6 152/3/6
f 152/3/6 150/3/6 153/3/6
f 150/2/6 145/2/6 154/2/6
f 153/3/6 150/3/6 154/3/6
f 152/3/6 153/3/6 155/3/6
f 151/2/6 152/2/6 155/2/6
f 153/2/6 154/2/6 156/2/6
f 155/3/6 153/3/6 156/3/6
f 154/2/6 145/2/6 157/2/6
f 156/2/6 154/2/6 157/2/6
f 157/2/6 145/2/6 158/2/6
f 155/2/6 156/2/6 159/2/6
f 146/2/6 151/2/6 159/2/6
f 156/2/6 157/2/6 159/2/6
f 151/2/6 155/2/6 159/2/6
f 159/2/6 157/2/6 160/2/6
f 161/1/6 162/1/6 164/1/6
f 164/1/6 162/1/6 165/1/6
f 163/1/6 164/1/6 167/1/6
f 167/1/6 164/1/6 168/1/6
f 166/1/6 167/1/6 170/1/6
f 170/1/6 167/1/6 171/1/6
f 169/1/6 170/1/6 173/1/6
f 173/1/6 170/1/6 174/1/6
f 172/1/6 173/1/6 177/1/6
f 177/1/6 173/1/6 178/1/6
f 175/1/6 176/1/6 179/1/6
f 179/1/6 176/1/6 180/1/6
