# MagicaVoxel @ Ephtracy

# group
o 

# material
mtllib конвеер 1 8 х 8.mtl
usemtl palette

# normals
vn -1 0 0
vn 1 0 0
vn 0 0 1
vn 0 0 -1
vn 0 -1 0
vn 0 1 0

# texcoords
vt 0.970703 0.5
vt 0.990234 0.5
vt 0.994141 0.5

# verts
v -0.4 0 0.4
v -0.4 0 0.3
v -0.4 0 -0.3
v -0.4 0 -0.4
v -0.4 0.1 0.3
v -0.4 0.1 -0.3
v -0.4 0.2 0.4
v -0.4 0.2 0.3
v -0.4 0.2 -0.3
v -0.4 0.2 -0.4
v 0.4 0 0.4
v 0.4 0 0.3
v 0.4 0 0.1
v 0.4 0 -0.1
v 0.4 0 -0.3
v 0.4 0 -0.4
v 0.4 0.1 0.3
v 0.4 0.1 0.1
v 0.4 0.1 -0.1
v 0.4 0.1 -0.3
v 0.4 0.2 0.4
v 0.4 0.2 0.3
v 0.4 0.2 -0.3
v 0.4 0.2 -0.4
v -0.4 0 0.4
v -0.4 0.2 0.4
v 0.4 0 0.4
v 0.4 0.2 0.4
v -0.4 0.1 -0.3
v -0.4 0.2 -0.3
v -0.1 0.1 -0.3
v 0 0.1 -0.3
v 0.4 0.1 -0.3
v 0.4 0.2 -0.3
v -0.4 0.1 0.3
v -0.4 0.2 0.3
v -0.1 0.1 0.3
v 0 0.1 0.3
v 0.4 0.1 0.3
v 0.4 0.2 0.3
v -0.4 0 -0.4
v -0.4 0.2 -0.4
v 0.4 0 -0.4
v 0.4 0.2 -0.4
v -0.4 0 0.4
v 0.4 0 0.4
v -0.4 0 0.3
v -0.1 0 0.3
v 0 0 0.3
v 0.4 0 0.3
v -0.2 0 0.2
v -0.1 0 0.2
v -0.3 0 0.1
v -0.2 0 0.1
v 0 0 0.1
v 0.4 0 0.1
v -0.3 0 -0.1
v -0.2 0 -0.1
v 0 0 -0.1
v 0.4 0 -0.1
v -0.2 0 -0.2
v -0.1 0 -0.2
v -0.4 0 -0.3
v -0.1 0 -0.3
v 0 0 -0.3
v 0.4 0 -0.3
v -0.4 0 -0.4
v 0.4 0 -0.4
v -0.4 0.1 0.3
v -0.1 0.1 0.3
v 0 0.1 0.3
v 0.4 0.1 0.3
v -0.2 0.1 0.2
v -0.1 0.1 0.2
v -0.3 0.1 0.1
v -0.2 0.1 0.1
v 0 0.1 0.1
v 0.4 0.1 0.1
v -0.3 0.1 -0.1
v -0.2 0.1 -0.1
v 0 0.1 -0.1
v 0.4 0.1 -0.1
v -0.2 0.1 -0.2
v -0.1 0.1 -0.2
v -0.4 0.1 -0.3
v -0.1 0.1 -0.3
v 0 0.1 -0.3
v 0.4 0.1 -0.3
v -0.4 0.2 0.4
v 0.4 0.2 0.4
v -0.4 0.2 0.3
v 0.4 0.2 0.3
v -0.4 0.2 -0.3
v 0.4 0.2 -0.3
v -0.4 0.2 -0.4
v 0.4 0.2 -0.4

# faces
f 5/1/1 2/1/1 1/1/1
f 5/2/1 3/2/1 2/2/1
f 6/1/1 4/1/1 3/1/1
f 6/2/1 3/2/1 5/2/1
f 7/1/1 5/1/1 1/1/1
f 8/1/1 5/1/1 7/1/1
f 9/1/1 4/1/1 6/1/1
f 10/1/1 4/1/1 9/1/1
f 11/1/2 12/1/2 17/1/2
f 12/2/2 13/2/2 17/2/2
f 13/3/2 14/3/2 18/3/2
f 17/2/2 13/2/2 18/2/2
f 14/2/2 15/2/2 19/2/2
f 18/3/2 14/3/2 19/3/2
f 15/1/2 16/1/2 20/1/2
f 19/2/2 15/2/2 20/2/2
f 11/1/2 17/1/2 21/1/2
f 21/1/2 17/1/2 22/1/2
f 20/1/2 16/1/2 23/1/2
f 23/1/2 16/1/2 24/1/2
f 27/1/3 26/1/3 25/1/3
f 28/1/3 26/1/3 27/1/3
f 31/1/3 30/1/3 29/1/3
f 32/1/3 30/1/3 31/1/3
f 33/1/3 30/1/3 32/1/3
f 34/1/3 30/1/3 33/1/3
f 35/1/4 36/1/4 37/1/4
f 37/1/4 36/1/4 38/1/4
f 38/1/4 36/1/4 39/1/4
f 39/1/4 36/1/4 40/1/4
f 41/1/4 42/1/4 43/1/4
f 43/1/4 42/1/4 44/1/4
f 47/1/5 46/1/5 45/1/5
f 48/1/5 46/1/5 47/1/5
f 49/1/5 46/1/5 48/1/5
f 50/1/5 46/1/5 49/1/5
f 51/2/5 48/2/5 47/2/5
f 52/3/5 49/3/5 48/3/5
f 52/2/5 48/2/5 51/2/5
f 53/2/5 51/2/5 47/2/5
f 54/3/5 52/3/5 51/3/5
f 54/2/5 51/2/5 53/2/5
f 55/3/5 49/3/5 52/3/5
f 55/3/5 52/3/5 54/3/5
f 55/2/5 50/2/5 49/2/5
f 56/2/5 50/2/5 55/2/5
f 57/3/5 54/3/5 53/3/5
f 57/2/5 53/2/5 47/2/5
f 57/3/5 56/3/5 55/3/5
f 57/3/5 55/3/5 54/3/5
f 58/3/5 56/3/5 57/3/5
f 59/3/5 56/3/5 58/3/5
f 60/3/5 56/3/5 59/3/5
f 61/2/5 58/2/5 57/2/5
f 61/3/5 59/3/5 58/3/5
f 62/3/5 59/3/5 61/3/5
f 63/2/5 57/2/5 47/2/5
f 63/2/5 61/2/5 57/2/5
f 63/2/5 62/2/5 61/2/5
f 64/3/5 59/3/5 62/3/5
f 64/2/5 62/2/5 63/2/5
f 65/2/5 60/2/5 59/2/5
f 65/3/5 59/3/5 64/3/5
f 66/2/5 60/2/5 65/2/5
f 67/1/5 64/1/5 63/1/5
f 67/1/5 65/1/5 64/1/5
f 67/1/5 66/1/5 65/1/5
f 68/1/5 66/1/5 67/1/5
f 69/2/6 70/2/6 73/2/6
f 70/3/6 71/3/6 74/3/6
f 73/2/6 70/2/6 74/2/6
f 69/2/6 73/2/6 75/2/6
f 73/3/6 74/3/6 76/3/6
f 75/2/6 73/2/6 76/2/6
f 71/2/6 72/2/6 77/2/6
f 76/3/6 74/3/6 77/3/6
f 74/3/6 71/3/6 77/3/6
f 77/2/6 72/2/6 78/2/6
f 75/3/6 76/3/6 79/3/6
f 69/2/6 75/2/6 79/2/6
f 77/3/6 78/3/6 79/3/6
f 76/3/6 77/3/6 79/3/6
f 79/3/6 78/3/6 80/3/6
f 80/3/6 78/3/6 81/3/6
f 81/3/6 78/3/6 82/3/6
f 79/2/6 80/2/6 83/2/6
f 80/3/6 81/3/6 83/3/6
f 83/3/6 81/3/6 84/3/6
f 69/2/6 79/2/6 85/2/6
f 79/2/6 83/2/6 85/2/6
f 83/2/6 84/2/6 85/2/6
f 84/3/6 81/3/6 86/3/6
f 85/2/6 84/2/6 86/2/6
f 81/2/6 82/2/6 87/2/6
f 86/3/6 81/3/6 87/3/6
f 87/2/6 82/2/6 88/2/6
f 89/1/6 90/1/6 91/1/6
f 91/1/6 90/1/6 92/1/6
f 93/1/6 94/1/6 95/1/6
f 95/1/6 94/1/6 96/1/6
